<svg width="56" height="56" viewBox="0 0 56 56" fill="none" xmlns="http://www.w3.org/2000/svg">
<path fill-rule="evenodd" clip-rule="evenodd" d="M33.8171 7.40325C34.4371 9.23665 33.0884 12.4221 28.9885 13.7508C24.8886 15.0794 21.8644 13.311 21.2443 11.4776C20.6242 9.64422 21.973 6.45875 26.0729 5.13012C30.1728 3.80148 33.197 5.56985 33.8171 7.40325Z" fill="#2D0A71"/>
<path fill-rule="evenodd" clip-rule="evenodd" d="M37.0655 27.9643C36.6528 29.2907 35.3663 30.5645 32.9813 31.2793C30.6163 31.9882 27.4742 32.0207 24.1731 31.0366C20.8721 30.0526 18.2818 28.3113 16.7219 26.4324C15.1488 24.5377 14.806 22.7782 15.2187 21.4517C15.6313 20.1253 16.9178 18.8515 19.3028 18.1367C21.6678 17.4278 24.8099 17.3953 28.111 18.3794C31.4121 19.3634 34.0023 21.1047 35.5622 22.9836C37.1353 24.8783 37.4781 26.6378 37.0655 27.9643Z" fill="#2D0A71"/>
<path fill-rule="evenodd" clip-rule="evenodd" d="M30.784 34.5869C32.5677 34.5869 34.5987 34.22 36.5416 33.8486L37.1208 33.7374C38.9165 33.3921 40.6557 33.0577 42.2803 32.9249C44.0904 32.7771 45.545 32.9029 46.6208 33.4051C47.6065 33.8652 48.4343 34.7155 48.8743 36.4385C49.4697 38.7698 47.9553 41.8332 44.2123 44.5019C40.5655 47.1019 35.1816 49 29.1609 49C22.9392 49 16.3345 48.0883 11.9178 46.1554C9.70183 45.1856 8.2227 44.0392 7.51174 42.8013C6.85636 41.6601 6.73532 40.2344 7.71644 38.3138C8.9609 35.8776 12.0332 34.7789 16.5708 34.4499C18.7712 34.2904 21.1667 34.3213 23.6082 34.3957C24.2687 34.4158 24.9349 34.4393 25.6009 34.4627C27.3683 34.5248 29.1339 34.5869 30.784 34.5869Z" fill="#2D0A71"/>
</svg>
